<svg id="calendar_3_" data-name="calendar (3)" xmlns="http://www.w3.org/2000/svg" width="30" height="29" viewBox="0 0 30 29">
  <path id="Path_5250" data-name="Path 5250" d="M.438,21.856a.444.444,0,0,0,.439-.449V8.321H26.794v4.939a.439.439,0,1,0,.877,0V4.38A2.7,2.7,0,0,0,25,1.648h-1.15V1.091A1.08,1.08,0,0,0,22.788,0h-.815a1.08,1.08,0,0,0-1.065,1.091v.556H18V1.091A1.08,1.08,0,0,0,16.933,0h-.815a1.08,1.08,0,0,0-1.065,1.091v.556H12.144V1.091A1.08,1.08,0,0,0,11.078,0h-.815A1.08,1.08,0,0,0,9.2,1.091v.556H6.289V1.091A1.08,1.08,0,0,0,5.223,0H4.409A1.08,1.08,0,0,0,3.343,1.091v.556H2.667A2.7,2.7,0,0,0,0,4.38V21.407a.444.444,0,0,0,.439.449ZM21.785,1.091A.191.191,0,0,1,21.974.9h.815a.191.191,0,0,1,.188.193V3.274a.191.191,0,0,1-.188.193h-.815a.191.191,0,0,1-.188-.193Zm-5.855,0A.191.191,0,0,1,16.119.9h.815a.191.191,0,0,1,.188.193V3.274a.191.191,0,0,1-.188.193h-.815a.191.191,0,0,1-.188-.193Zm-5.855,0A.191.191,0,0,1,10.264.9h.815a.191.191,0,0,1,.188.193V3.274a.191.191,0,0,1-.188.193h-.815a.191.191,0,0,1-.188-.193Zm-5.855,0A.191.191,0,0,1,4.409.9h.815a.191.191,0,0,1,.188.193V3.274a.191.191,0,0,1-.188.193H4.409a.191.191,0,0,1-.188-.193ZM2.667,2.546h.676v.728A1.08,1.08,0,0,0,4.409,4.366h.815A1.08,1.08,0,0,0,6.289,3.274V2.546H9.2v.728a1.08,1.08,0,0,0,1.065,1.091h.815a1.08,1.08,0,0,0,1.066-1.091V2.546h2.909v.728a1.08,1.08,0,0,0,1.066,1.091h.815A1.08,1.08,0,0,0,18,3.274V2.546h2.909v.728a1.08,1.08,0,0,0,1.066,1.091h.815a1.08,1.08,0,0,0,1.065-1.091V2.546H25a1.814,1.814,0,0,1,1.79,1.833V7.422H.877V4.38A1.814,1.814,0,0,1,2.667,2.546Zm0,0" transform="translate(0 0)" fill="#4b8300"/>
  <path id="Path_5251" data-name="Path 5251" d="M5.087,387.041H1.169a.271.271,0,0,1-.27-.27v-2.31a.449.449,0,0,0-.9,0v2.31a1.17,1.17,0,0,0,1.169,1.169H5.087a.449.449,0,1,0,0-.9Zm0,0" transform="translate(0 -361.583)" fill="#4b8300"/>
  <path id="Path_5252" data-name="Path 5252" d="M53.1,160.762H51.539a.449.449,0,1,0,0,.9H53.1a.449.449,0,1,0,0-.9Zm0,0" transform="translate(-48.029 -151.325)" fill="#4b8300"/>
  <path id="Path_5253" data-name="Path 5253" d="M131.656,161.661h1.562a.449.449,0,0,0,0-.9h-1.562a.449.449,0,1,0,0,.9Zm0,0" transform="translate(-123.534 -151.325)" fill="#4b8300"/>
  <path id="Path_5254" data-name="Path 5254" d="M211.773,161.661h1.562a.449.449,0,1,0,0-.9h-1.562a.449.449,0,0,0,0,.9Zm0,0" transform="translate(-198.966 -151.325)" fill="#4b8300"/>
  <path id="Path_5255" data-name="Path 5255" d="M291.887,161.661h1.562a.449.449,0,1,0,0-.9h-1.562a.449.449,0,1,0,0,.9Zm0,0" transform="translate(-274.395 -151.325)" fill="#4b8300"/>
  <path id="Path_5256" data-name="Path 5256" d="M373.565,160.762H372a.449.449,0,0,0,0,.9h1.562a.449.449,0,1,0,0-.9Zm0,0" transform="translate(-349.826 -151.325)" fill="#4b8300"/>
  <path id="Path_5257" data-name="Path 5257" d="M53.1,198.477H51.539a.449.449,0,0,0,0,.9H53.1a.449.449,0,0,0,0-.9Zm0,0" transform="translate(-48.029 -186.826)" fill="#4b8300"/>
  <path id="Path_5258" data-name="Path 5258" d="M131.656,199.376h1.562a.449.449,0,0,0,0-.9h-1.562a.449.449,0,0,0,0,.9Zm0,0" transform="translate(-123.534 -186.826)" fill="#4b8300"/>
  <path id="Path_5259" data-name="Path 5259" d="M211.773,199.376h1.562a.449.449,0,0,0,0-.9h-1.562a.449.449,0,0,0,0,.9Zm0,0" transform="translate(-198.966 -186.826)" fill="#4b8300"/>
  <path id="Path_5260" data-name="Path 5260" d="M291.887,199.376h1.562a.449.449,0,1,0,0-.9h-1.562a.449.449,0,0,0,0,.9Zm0,0" transform="translate(-274.395 -186.826)" fill="#4b8300"/>
  <path id="Path_5261" data-name="Path 5261" d="M373.565,198.477H372a.449.449,0,0,0,0,.9h1.562a.449.449,0,1,0,0-.9Zm0,0" transform="translate(-349.826 -186.826)" fill="#4b8300"/>
  <path id="Path_5262" data-name="Path 5262" d="M130.771,250.3l2.31,2.31a1.769,1.769,0,0,0,2.5,0l6.327-6.327a1.769,1.769,0,1,0-2.5-2.5l-5.075,5.075-1.059-1.059a1.769,1.769,0,1,0-2.5,2.5Zm.635-1.867a.872.872,0,0,1,1.231,0l1.377,1.377a.449.449,0,0,0,.635,0l5.393-5.393a.871.871,0,1,1,1.231,1.231l-6.326,6.326a.871.871,0,0,1-1.231,0l-2.31-2.31a.872.872,0,0,1,0-1.231Zm0,0" transform="translate(-122.734 -229.119)" fill="#4b8300"/>
  <path id="Path_5263" data-name="Path 5263" d="M133.245,252.046v-3.585a.449.449,0,1,0-.9,0v3.012a5.96,5.96,0,0,0-8.181,7.715h-12.13a.449.449,0,1,0,0,.9h12.628a5.959,5.959,0,1,0,8.582-8.041Zm-3.632,9.785a5.062,5.062,0,1,1,5.062-5.062A5.068,5.068,0,0,1,129.612,261.831Zm0,0" transform="translate(-105.573 -233.73)" fill="#4b8300"/>
  <path id="Path_5264" data-name="Path 5264" d="M343.241,320.527a4.413,4.413,0,1,0,4.413,4.413A4.418,4.418,0,0,0,343.241,320.527Zm.4,7.9a.448.448,0,0,0,.047-.2v-.547a.449.449,0,0,0-.9,0v.547a.444.444,0,0,0,.047.2,3.52,3.52,0,0,1-3.089-3.088.445.445,0,0,0,.2.047h.547a.449.449,0,1,0,0-.9h-.547a.446.446,0,0,0-.2.047,3.52,3.52,0,0,1,3.089-3.089.444.444,0,0,0-.047.2v.547a.449.449,0,0,0,.9,0v-.547a.448.448,0,0,0-.047-.2,3.52,3.52,0,0,1,3.088,3.089.447.447,0,0,0-.2-.047h-.547a.449.449,0,1,0,0,.9h.547a.445.445,0,0,0,.2-.047A3.52,3.52,0,0,1,343.644,328.431Zm0,0" transform="translate(-319.202 -301.901)" fill="#4b8300"/>
  <path id="Path_5265" data-name="Path 5265" d="M406.435,372.414h-.541v-.461a.449.449,0,1,0-.9,0v.91a.449.449,0,0,0,.449.449h.99a.449.449,0,1,0,0-.9Zm0,0" transform="translate(-381.406 -349.71)" fill="#4b8300"/>
</svg>
