<svg id="location_1_" data-name="location (1)" xmlns="http://www.w3.org/2000/svg" width="30" height="30" viewBox="0 0 30 30">
  <path id="Path_5268" data-name="Path 5268" d="M56.758,26.013a3.768,3.768,0,1,0-3.768,3.768A3.767,3.767,0,0,0,56.758,26.013Zm-6.643,0a2.875,2.875,0,1,1,2.875,2.876A2.875,2.875,0,0,1,50.115,26.013Z" transform="translate(-37.991 -17.62)" fill="#4b8300"/>
  <path id="Path_5269" data-name="Path 5269" d="M34.527,33.96l-3.6-9.438a.442.442,0,0,0-.413-.284H23.7l.125-.2c2.622-4.34,3.941-8.137,3.922-11.283a8.192,8.192,0,1,0-16.384,0c-.019,3.148,1.3,6.945,3.922,11.285.042.069.083.135.125.2H8.6a.442.442,0,0,0-.413.284l-3.6,9.438a.441.441,0,0,0,.413.6H34.114a.441.441,0,0,0,.413-.6ZM12.247,12.751a7.309,7.309,0,0,1,14.617,0c.038,6.274-5.826,14.011-7.309,15.866-1.482-1.855-7.347-9.589-7.309-15.867ZM19.22,29.6a.442.442,0,0,0,.673,0,46.864,46.864,0,0,0,3.255-4.481H30.21l.565,1.483-13.8,4.908L12.055,25.12h3.909A46.866,46.866,0,0,0,19.22,29.6Zm-2.261,2.852h0l8.233-2.927,3.193,4.149H13.525ZM8.9,25.12h2.039l5.158,6.7L10.89,33.676H5.639Zm20.6,8.556-3.434-4.462,5.022-1.786,2.383,6.248Z" transform="translate(-4.556 -4.559)" fill="#4b8300"/>
</svg>
