<svg xmlns="http://www.w3.org/2000/svg" width="30" height="30" viewBox="0 0 30 30">
  <g id="money_1_" data-name="money (1)" transform="translate(0)">
    <g id="Group_2814" data-name="Group 2814" transform="translate(4.083 26.397)">
      <g id="Group_2813" data-name="Group 2813">
        <path id="Path_5279" data-name="Path 5279" d="M69.028,452.177a.6.6,0,1,0,.176.425A.6.6,0,0,0,69.028,452.177Z" transform="translate(-68.003 -452.001)" fill="#4b8300"/>
      </g>
    </g>
    <g id="Group_2816" data-name="Group 2816" transform="translate(26.425 10.537)">
      <g id="Group_2815" data-name="Group 2815">
        <path id="Path_5280" data-name="Path 5280" d="M453.479,180.184a.6.6,0,1,0,.176.424A.6.6,0,0,0,453.479,180.184Z" transform="translate(-452.454 -180.008)" fill="#4b8300"/>
      </g>
    </g>
    <g id="Group_2818" data-name="Group 2818" transform="translate(0)">
      <g id="Group_2817" data-name="Group 2817" transform="translate(0)">
        <path id="Path_5281" data-name="Path 5281" d="M29.835.172A.586.586,0,0,0,29.421,0H15.007a.586.586,0,0,0-.586.586V2.262L8.867,3.751a.586.586,0,0,0-.414.718l2.879,10.743L8.841,17.7a1.757,1.757,0,0,0-1.451-.767H1.765A1.76,1.76,0,0,0,.007,18.692v9.551A1.76,1.76,0,0,0,1.765,30H7.39A1.761,1.761,0,0,0,9.1,28.665l.7.608A2.952,2.952,0,0,0,11.733,30H29.421a.586.586,0,0,0,.586-.586V.586A.587.587,0,0,0,29.835.172ZM7.976,28.242a.587.587,0,0,1-.586.586H1.765a.587.587,0,0,1-.586-.586V18.692a.587.587,0,0,1,.586-.586H3.991v6.75a.586.586,0,0,0,1.172,0v-6.75H7.39a.587.587,0,0,1,.586.586v9.551ZM9.736,4.731l4.685-1.255V5.647l-.393.105a.586.586,0,0,0-.414.718A1.579,1.579,0,0,1,12.5,8.4a.586.586,0,0,0-.414.719l2.284,8.457H13.192l-.606-2.371a.585.585,0,0,0-.1-.205Zm4.685,3.6v4.944L13.352,9.321A2.745,2.745,0,0,0,14.421,8.334Zm8.418,20.494H11.733a1.781,1.781,0,0,1-1.17-.439L9.148,27.155v-8.1l2.558-2.558.464,1.815a.586.586,0,0,0,.568.441h11.52a.82.82,0,1,1,0,1.641h-5.9a.586.586,0,1,0,0,1.172h7.737a.82.82,0,1,1,0,1.641H18.355a.586.586,0,1,0,0,1.172h6.483a.82.82,0,1,1,0,1.641H18.355a.586.586,0,1,0,0,1.172h4.484a.82.82,0,1,1,0,1.64Zm6,0H24.654a1.985,1.985,0,0,0,0-1.641h.184A1.991,1.991,0,0,0,26.618,24.3,1.99,1.99,0,0,0,27.69,21.2V13.77a.586.586,0,0,0-1.172,0v6.667a1.993,1.993,0,0,0-.427-.047h-.019a1.991,1.991,0,0,0-1.815-2.812h-.942a2.8,2.8,0,1,0-2.2,0h-3.2V6.437a2.758,2.758,0,0,0,2.1-2.1h4.408a2.758,2.758,0,0,0,2.1,2.1V8.259a.586.586,0,0,0,1.172,0V5.914a.586.586,0,0,0-.586-.586,1.579,1.579,0,0,1-1.578-1.578.586.586,0,0,0-.586-.586H19.487a.586.586,0,0,0-.586.586,1.579,1.579,0,0,1-1.578,1.578.586.586,0,0,0-.586.586V17.578H15.593V1.173H28.835Zm-6.621-12.2A1.632,1.632,0,1,1,23.846,15,1.634,1.634,0,0,1,22.214,16.632Z" transform="translate(-0.007 0)" fill="#4b8300"/>
      </g>
    </g>
  </g>
</svg>
