<svg xmlns="http://www.w3.org/2000/svg" width="30" height="29.994" viewBox="0 0 30 29.994">
  <g id="Search_results_for_Phone_-_Flaticon-2_1_" data-name="Search results for Phone - Flaticon-2 (1)" transform="translate(0.002)">
    <path id="Path_5351" data-name="Path 5351" d="M282.027,0a.586.586,0,1,0,0,1.172,11.765,11.765,0,0,1,11.752,11.752.586.586,0,0,0,1.172,0A12.938,12.938,0,0,0,282.027,0Zm0,0" transform="translate(-264.952)" fill="#4b8300"/>
    <path id="Path_5352" data-name="Path 5352" d="M290.841,70.142a.586.586,0,0,0,.586-.586,9.409,9.409,0,0,0-9.4-9.4.586.586,0,1,0,0,1.172,8.236,8.236,0,0,1,8.227,8.227A.586.586,0,0,0,290.841,70.142Zm0,0" transform="translate(-264.953 -56.632)" fill="#4b8300"/>
    <path id="Path_5353" data-name="Path 5353" d="M286.729,126.2a.586.586,0,1,0,1.172,0,5.88,5.88,0,0,0-5.873-5.873.586.586,0,1,0,0,1.172,4.707,4.707,0,0,1,4.7,4.7Zm0,0" transform="translate(-264.953 -113.278)" fill="#4b8300"/>
    <path id="Path_5354" data-name="Path 5354" d="M281.441,181.07a.586.586,0,0,0,.586.586,1.178,1.178,0,0,1,1.176,1.177.586.586,0,1,0,1.172,0,2.351,2.351,0,0,0-2.348-2.348A.586.586,0,0,0,281.441,181.07Zm0,0" transform="translate(-264.952 -169.909)" fill="#4b8300"/>
    <path id="Path_5355" data-name="Path 5355" d="M168.606,315.266a.586.586,0,1,1-.586-.586A.586.586,0,0,1,168.606,315.266Zm0,0" transform="translate(-157.625 -296.242)" fill="#4b8300"/>
    <path id="Path_5356" data-name="Path 5356" d="M16.055,97.124a6.966,6.966,0,0,0,7.988-1.346l1.211-1.211a1.681,1.681,0,0,0,0-2.379l-4.681-4.681a1.68,1.68,0,0,0-2.379,0l-1.989,1.989a1.159,1.159,0,0,1-1.429.189,21.977,21.977,0,0,1-2.067-1.5.586.586,0,0,0-.742.907,23.109,23.109,0,0,0,2.178,1.578,2.337,2.337,0,0,0,2.889-.348l1.989-1.989a.509.509,0,0,1,.721,0l4.681,4.681a.51.51,0,0,1,0,.722l-1.212,1.212a5.794,5.794,0,0,1-6.644,1.123A32.468,32.468,0,0,1,1.758,81.182a5.751,5.751,0,0,1,1.125-6.618l1.185-1.185a.509.509,0,0,1,.721,0L9.47,78.061a.509.509,0,0,1,0,.721L7.481,80.771a2.338,2.338,0,0,0-.348,2.889c.338.529.7,1.051,1.083,1.551a.586.586,0,1,0,.932-.71c-.361-.474-.707-.97-1.028-1.472a1.16,1.16,0,0,1,.189-1.43L10.3,79.611a1.681,1.681,0,0,0,0-2.379L5.617,72.551a1.68,1.68,0,0,0-2.379,0L2.054,73.735A6.922,6.922,0,0,0,.708,81.7,33.631,33.631,0,0,0,16.055,97.124Zm0,0" transform="translate(0 -67.835)" fill="#4b8300"/>
  </g>
</svg>
