<svg xmlns="http://www.w3.org/2000/svg" width="30" height="28" viewBox="0 0 30 28">
  <g id="product" transform="translate(0)">
    <path id="Path_5270" data-name="Path 5270" d="M37.173,37.7H35.66A1.49,1.49,0,0,0,34.238,36.6H32.623V32.649a.417.417,0,0,0-.2-.369L21.029,25.691a.42.42,0,0,0-.423,0L9.211,32.28A.425.425,0,0,0,9,32.649V45.828a.426.426,0,0,0,.213.369l11.4,6.589a.425.425,0,0,0,.213.057.446.446,0,0,0,.219-.057l6-3.464v2.5a1.8,1.8,0,0,0,1.815,1.807h8.321A1.811,1.811,0,0,0,39,51.826V39.534A1.835,1.835,0,0,0,37.173,37.7Zm-2.92-.243a.618.618,0,0,1,.617.618v.041a.618.618,0,0,1-.617.618h-2.47a.618.618,0,0,1-.617-.618v-.041a.618.618,0,0,1,.617-.618Zm-13.432-10.9,4.735,2.738-10.545,6.1-4.735-2.738Zm-.4,25.129L9.85,45.582v-12.2l10.567,6.1Zm.4-12.934-4.96-2.868,10.545-6.1,4.96,2.868Zm6.215.788v8.8L21.267,51.68v-12.2l10.506-6.1V36.6h.013A1.49,1.49,0,0,0,30.364,37.7H28.852A1.826,1.826,0,0,0,27.036,39.534ZM38.15,51.826a.96.96,0,0,1-.977.956H28.852a.95.95,0,0,1-.965-.956V39.534a.974.974,0,0,1,.965-.984h1.529a1.454,1.454,0,0,0,1.406,1.034h2.452a1.454,1.454,0,0,0,1.405-1.034h1.529a.984.984,0,0,1,.977.984Z" transform="translate(-9 -25.634)" fill="#4b8300"/>
    <path id="Path_5271" data-name="Path 5271" d="M337.432,280.925h.456a.436.436,0,0,0,0-.871h-.017v-1.182h1.2a.419.419,0,0,0,.414.294.437.437,0,0,0,.438-.435v-.293a.441.441,0,0,0-.44-.438h-2.052a.435.435,0,0,0-.432.438v2.052a.432.432,0,0,0,.432.435Z" transform="translate(-317.133 -262.691)" fill="#4b8300"/>
    <path id="Path_5272" data-name="Path 5272" d="M337.436,344.925h2.054a.436.436,0,0,0,.436-.436v-2.054a.436.436,0,0,0-.436-.436h-2.054a.436.436,0,0,0-.436.436v2.054A.436.436,0,0,0,337.436,344.925Zm.436-2.054h1.182v1.182h-1.182Z" transform="translate(-317.133 -322.809)" fill="#4b8300"/>
    <path id="Path_5273" data-name="Path 5273" d="M337.888,408.054h-.017v-1.182h1.178a.438.438,0,0,0,.876,0v-.42a.454.454,0,0,0-.44-.452h-2.052a.448.448,0,0,0-.432.452V408.5a.42.42,0,0,0,.432.421h.456a.436.436,0,0,0,0-.871Z" transform="translate(-317.132 -382.979)" fill="#4b8300"/>
    <path id="Path_5274" data-name="Path 5274" d="M356.762,284.666l-1.276,1.276-.388-.388a.436.436,0,0,0-.616.616l.7.7a.436.436,0,0,0,.616,0l1.584-1.584a.436.436,0,0,0-.616-.616Z" transform="translate(-333.441 -268.826)" fill="#4b8300"/>
    <path id="Path_5275" data-name="Path 5275" d="M356.762,413.915l-1.276,1.276-.388-.388a.436.436,0,0,0-.616.616l.7.7a.436.436,0,0,0,.616,0l1.584-1.584a.436.436,0,0,0-.616-.616Z" transform="translate(-333.441 -390.282)" fill="#4b8300"/>
    <path id="Path_5276" data-name="Path 5276" d="M417.063,295h-2.736a.436.436,0,0,0,0,.871h2.736a.436.436,0,1,0,0-.871Z" transform="translate(-389.436 -278.629)" fill="#4b8300"/>
    <path id="Path_5277" data-name="Path 5277" d="M417.063,359h-2.736a.436.436,0,1,0,0,.871h2.736a.436.436,0,1,0,0-.871Z" transform="translate(-389.436 -338.739)" fill="#4b8300"/>
    <path id="Path_5278" data-name="Path 5278" d="M417.063,423h-2.736a.436.436,0,0,0,0,.871h2.736a.436.436,0,1,0,0-.871Z" transform="translate(-389.436 -398.921)" fill="#4b8300"/>
  </g>
</svg>
