<svg xmlns="http://www.w3.org/2000/svg" width="27" height="22" viewBox="0 0 27 22">
  <g id="shopping-cart-black-shape" transform="translate(0.5 -36.043)">
    <g id="Group_756" data-name="Group 756" transform="translate(0 36.543)">
      <path id="Path_54" data-name="Path 54" d="M365.446,367.418a1.966,1.966,0,1,0,.576-1.39A1.894,1.894,0,0,0,365.446,367.418Z" transform="translate(-345.342 -348.384)" fill="none" stroke="#fff" stroke-width="1"/>
      <path id="Path_55" data-name="Path 55" d="M25.7,38.721a.987.987,0,0,0-.7-.282H6.234q-.016-.1-.07-.378t-.086-.437a2.509,2.509,0,0,0-.117-.392,1.163,1.163,0,0,0-.2-.363A1.007,1.007,0,0,0,5,36.543H1a.988.988,0,0,0-.7.281.9.9,0,0,0,0,1.334.988.988,0,0,0,.7.281H4.187L6.953,50.634q-.031.059-.32.563t-.461.882A1.562,1.562,0,0,0,6,52.664a.89.89,0,0,0,.3.667.99.99,0,0,0,.7.281H23a.989.989,0,0,0,.7-.281A.9.9,0,0,0,23.7,52a.988.988,0,0,0-.7-.282H8.625A2.766,2.766,0,0,0,9,50.767a1.522,1.522,0,0,0-.039-.326q-.039-.177-.094-.393T8.8,49.73L25.11,47.923a.988.988,0,0,0,.64-.319.906.906,0,0,0,.25-.63V39.388A.89.89,0,0,0,25.7,38.721Z" transform="translate(0 -36.543)" fill="none" stroke="#fff" stroke-width="1"/>
      <path id="Path_56" data-name="Path 56" d="M109.632,367.418a1.966,1.966,0,1,0,.576-1.39A1.892,1.892,0,0,0,109.632,367.418Z" transform="translate(-103.613 -348.384)" fill="none" stroke="#fff" stroke-width="1"/>
    </g>
  </g>
</svg>
